<svg width="70" height="37" viewBox="0 0 70 37" fill="none" xmlns="http://www.w3.org/2000/svg">
<path d="M4.04241 11.8202L6.81257 20.4546L9.57422 11.8202H13.5121V24.2305H10.5118V21.3325L10.8016 15.4001L7.80131 24.2305H5.82384L2.81501 15.3916L3.10482 21.3325V24.2305H0.113037V11.8202H4.04241Z" fill="white"/>
<path d="M19.7514 24.401C18.3365 24.401 17.1915 23.9805 16.3164 23.1395C15.4413 22.2928 15.0037 21.1933 15.0037 19.8409V19.6022C15.0037 18.6589 15.1771 17.8265 15.5237 17.1048C15.876 16.3831 16.3874 15.8263 17.0579 15.4342C17.7284 15.0364 18.524 14.8375 19.4445 14.8375C20.7401 14.8375 21.7629 15.241 22.513 16.0479C23.2631 16.8491 23.6381 17.9685 23.6381 19.4062V20.5228H17.9273C18.0296 21.0399 18.2541 21.4462 18.6007 21.7416C18.9473 22.0371 19.3962 22.1849 19.9474 22.1849C20.8566 22.1849 21.5669 21.8666 22.0783 21.2302L23.3909 22.7815C23.033 23.2759 22.5244 23.6708 21.8652 23.9663C21.2118 24.2561 20.5071 24.401 19.7514 24.401ZM19.4275 17.0537C18.5865 17.0537 18.0864 17.6105 17.9273 18.7243H20.8253V18.5027C20.8367 18.0424 20.7202 17.6873 20.4759 17.4372C20.2315 17.1815 19.8821 17.0537 19.4275 17.0537Z" fill="white"/>
<path d="M30.3803 17.6077L29.4342 17.5395C28.5307 17.5395 27.9511 17.8236 27.6954 18.3919V24.2305H24.8229V15.008H27.5164L27.6101 16.1928C28.0931 15.2893 28.7665 14.8375 29.6302 14.8375C29.9371 14.8375 30.2041 14.8716 30.4314 14.9398L30.3803 17.6077Z" fill="white"/>
<path d="M34.446 24.2305H31.5651V15.008H34.446V24.2305ZM31.3946 12.6299C31.3946 12.2208 31.5423 11.8855 31.8378 11.6241C32.1333 11.3628 32.5169 11.2321 32.9885 11.2321C33.4601 11.2321 33.8437 11.3628 34.1392 11.6241C34.4347 11.8855 34.5824 12.2208 34.5824 12.6299C34.5824 13.0391 34.4347 13.3743 34.1392 13.6357C33.8437 13.8971 33.4601 14.0278 32.9885 14.0278C32.5169 14.0278 32.1333 13.8971 31.8378 13.6357C31.5423 13.3743 31.3946 13.0391 31.3946 12.6299Z" fill="white"/>
<path d="M39.5687 12.7152V15.008H41.0859V17.0025H39.5687V21.2217C39.5687 21.5683 39.6312 21.8098 39.7562 21.9462C39.8812 22.0826 40.1284 22.1508 40.4978 22.1508C40.7819 22.1508 41.0206 22.1337 41.2138 22.0996V24.1538C40.6967 24.3186 40.1568 24.401 39.5943 24.401C38.6055 24.401 37.8754 24.168 37.4037 23.7021C36.9321 23.2361 36.6963 22.5286 36.6963 21.5797V17.0025H35.52V15.008H36.6963V12.7152H39.5687Z" fill="white"/>
<path d="M47.4189 24.2305C47.3167 24.043 47.2257 23.7674 47.1462 23.4037C46.6177 24.0686 45.879 24.401 44.93 24.401C44.0606 24.401 43.3219 24.1396 42.7139 23.6168C42.1059 23.0884 41.8019 22.4264 41.8019 21.6308C41.8019 20.6307 42.1712 19.875 42.91 19.3636C43.6487 18.8521 44.7226 18.5964 46.1319 18.5964H47.0183V18.1106C47.0183 17.2639 46.6518 16.8406 45.9188 16.8406C45.2369 16.8406 44.896 17.1758 44.896 17.8464H42.0235C42.0235 16.9542 42.4014 16.2297 43.1571 15.6728C43.9186 15.116 44.8874 14.8375 46.0637 14.8375C47.2399 14.8375 48.169 15.1245 48.8509 15.6984C49.5328 16.2723 49.8823 17.0593 49.8993 18.0594V22.1422C49.9107 22.9889 50.0414 23.6367 50.2914 24.0856V24.2305H47.4189ZM45.6205 22.3553C45.9784 22.3553 46.2739 22.2786 46.5069 22.1252C46.7456 21.9718 46.916 21.7985 47.0183 21.6053V20.1307H46.183C45.1829 20.1307 44.6829 20.5796 44.6829 21.4774C44.6829 21.7388 44.7709 21.9519 44.9471 22.1167C45.1232 22.2758 45.3477 22.3553 45.6205 22.3553Z" fill="white"/>
<path d="M51.1608 19.5511C51.1608 18.6192 51.3142 17.7952 51.6211 17.0792C51.9279 16.3633 52.3683 15.8121 52.9422 15.4257C53.5161 15.0336 54.1838 14.8375 54.9453 14.8375C55.9056 14.8375 56.6557 15.1614 57.1955 15.8092L57.2978 15.008H59.906V23.8811C59.906 24.6936 59.7156 25.3983 59.3349 25.9949C58.9599 26.5972 58.4144 27.0575 57.6984 27.3757C56.9824 27.6996 56.1528 27.8616 55.2095 27.8616C54.5333 27.8616 53.877 27.7337 53.2405 27.478C52.6098 27.2223 52.1268 26.8899 51.7915 26.4807L52.9934 24.7931C53.5275 25.4238 54.2321 25.7392 55.1072 25.7392C56.3801 25.7392 57.0165 25.0857 57.0165 23.7788V23.489C56.4653 24.097 55.7692 24.401 54.9282 24.401C53.8031 24.401 52.8939 23.972 52.2007 23.1139C51.5074 22.2502 51.1608 21.0967 51.1608 19.6534V19.5511ZM54.0418 19.7301C54.0418 20.4858 54.1838 21.0853 54.4679 21.5285C54.7521 21.9661 55.1498 22.1849 55.6612 22.1849C56.2806 22.1849 56.7324 21.9775 57.0165 21.5626V17.6844C56.7381 17.2639 56.292 17.0537 55.6783 17.0537C55.1669 17.0537 54.7663 17.2838 54.4765 17.7441C54.1867 18.1987 54.0418 18.8607 54.0418 19.7301Z" fill="white"/>
<path d="M66.0004 24.401C64.5854 24.401 63.4404 23.9805 62.5653 23.1395C61.6903 22.2928 61.2527 21.1933 61.2527 19.8409V19.6022C61.2527 18.6589 61.426 17.8265 61.7727 17.1048C62.125 16.3831 62.6364 15.8263 63.3069 15.4342C63.9774 15.0364 64.773 14.8375 65.6935 14.8375C66.9891 14.8375 68.0119 15.241 68.762 16.0479C69.5121 16.8491 69.8871 17.9685 69.8871 19.4062V20.5228H64.1763C64.2786 21.0399 64.503 21.4462 64.8497 21.7416C65.1963 22.0371 65.6452 22.1849 66.1964 22.1849C67.1056 22.1849 67.8159 21.8666 68.3273 21.2302L69.6399 22.7815C69.2819 23.2759 68.7734 23.6708 68.1142 23.9663C67.4607 24.2561 66.7561 24.401 66.0004 24.401ZM65.6765 17.0537C64.8355 17.0537 64.3354 17.6105 64.1763 18.7243H67.0743V18.5027C67.0857 18.0424 66.9692 17.6873 66.7249 17.4372C66.4805 17.1815 66.131 17.0537 65.6765 17.0537Z" fill="white"/>
<path d="M9.84929 35.2532V26.3631H8.50256V24.88H13.0371V26.3631H11.6392V29.7555H16.796V26.3631H15.4067V24.88H19.9412V26.3631H18.586V35.2532H19.9412V36.7363H15.4067V35.2532H16.796V31.2386H11.6392V35.2532H13.0371V36.7363H8.50256V35.2532H9.84929Z" fill="white"/>
<path d="M20.4468 32.6109C20.4468 31.338 20.8673 30.2953 21.7083 29.4827C22.5493 28.6645 23.575 28.2553 24.7853 28.2553C25.973 28.2553 26.9929 28.6588 27.8453 29.4657C28.6977 30.2669 29.1238 31.3153 29.1238 32.6109C29.1238 33.9065 28.6977 34.9577 27.8453 35.7646C26.9986 36.5715 25.9786 36.975 24.7853 36.975C23.5579 36.975 22.5266 36.5658 21.6913 35.7476C20.8616 34.9293 20.4468 33.8838 20.4468 32.6109ZM22.1601 32.6109C22.1601 33.4235 22.4129 34.0912 22.9187 34.6139C23.4301 35.131 24.0523 35.3896 24.7853 35.3896C25.5297 35.3896 26.152 35.1282 26.652 34.6054C27.1577 34.077 27.4106 33.4121 27.4106 32.6109C27.4106 31.804 27.1549 31.1392 26.6435 30.6164C26.1321 30.0936 25.5127 29.8322 24.7853 29.8322C24.0239 29.8322 23.396 30.0993 22.9016 30.6334C22.4073 31.1676 22.1601 31.8267 22.1601 32.6109Z" fill="white"/>
<path d="M31.1126 35.2958V29.926H29.7403V28.4855H32.732V29.5254C33.7094 28.7469 34.6669 28.3576 35.6045 28.3576C36.5478 28.3576 37.1984 28.7866 37.5564 29.6447C38.6304 28.7866 39.6305 28.3576 40.5567 28.3576C41.0908 28.3576 41.5284 28.477 41.8693 28.7156C42.216 28.9486 42.4489 29.2469 42.5683 29.6106C42.6876 29.9686 42.7473 30.4999 42.7473 31.2045V35.2958H44.1877V36.7363H41.1278V31.4943C41.1278 31.017 41.105 30.6817 41.0596 30.4885C41.0198 30.2896 40.9118 30.1277 40.7357 30.0027C40.5652 29.872 40.3578 29.8066 40.1135 29.8066C39.4202 29.8066 38.6332 30.1618 37.7524 30.8721V35.2958H39.1674V36.7363H36.133V31.3409C36.133 30.8011 36.0534 30.4118 35.8943 30.1732C35.7409 29.9288 35.4766 29.8066 35.1016 29.8066C34.4879 29.8066 33.698 30.1618 32.732 30.8721V35.2958H34.1811V36.7363H29.638V35.2958H31.1126Z" fill="white"/>
<path d="M53.0294 33.02H46.0912C46.1935 33.7815 46.4947 34.398 46.9947 34.8696C47.4948 35.3413 48.134 35.5771 48.9125 35.5771C50.0433 35.5771 50.9383 35.1225 51.5975 34.2133L53.0294 34.8441C52.5635 35.5657 51.9583 36.1027 51.2139 36.455C50.4695 36.8017 49.691 36.975 48.8784 36.975C47.617 36.975 46.5373 36.5829 45.6395 35.7987C44.7473 35.0089 44.3013 33.9463 44.3013 32.6109C44.3013 31.3437 44.736 30.301 45.6054 29.4827C46.4805 28.6645 47.4834 28.2553 48.6142 28.2553C49.7223 28.2553 50.7252 28.656 51.623 29.4572C52.5265 30.2527 52.9953 31.4403 53.0294 33.02ZM51.3588 31.8438C51.2452 31.2642 50.944 30.7414 50.4553 30.2754C49.9666 29.8038 49.3671 29.568 48.6568 29.568C48.009 29.568 47.455 29.7811 46.9947 30.2072C46.5345 30.6277 46.2532 31.1733 46.1509 31.8438H51.3588Z" fill="white"/>
<path d="M53.7822 36.7363V33.9065H55.2312V34.1792C55.2824 34.5656 55.4898 34.8839 55.8535 35.1339C56.2228 35.3839 56.6575 35.5089 57.1576 35.5089C57.6803 35.5089 58.098 35.418 58.4105 35.2362C58.7231 35.0543 58.8793 34.8015 58.8793 34.4776C58.8793 34.165 58.7486 33.9349 58.4872 33.7872C58.2315 33.6394 57.7201 33.503 56.953 33.378C55.8165 33.1848 55.0039 32.8751 54.5153 32.4489C54.0323 32.0171 53.7908 31.4602 53.7908 30.7783C53.7908 30.0908 54.055 29.5168 54.5834 29.0566C55.1119 28.5906 55.808 28.3576 56.6717 28.3576C57.4502 28.3576 58.1207 28.5167 58.6833 28.8349V28.4855H60.1238V31.2216H58.6833V30.7187C58.2457 30.0425 57.6093 29.7044 56.774 29.7044C56.3478 29.7044 55.9955 29.7981 55.7171 29.9856C55.4443 30.1675 55.3079 30.4118 55.3079 30.7187C55.3079 31.0312 55.433 31.2471 55.683 31.3665C55.9387 31.4801 56.4842 31.6023 57.3195 31.733C58.1207 31.858 58.7259 32.0057 59.135 32.1762C59.5442 32.341 59.8823 32.6194 60.1493 33.0115C60.4221 33.3979 60.5585 33.8497 60.5585 34.3668C60.5585 35.1339 60.263 35.7447 59.672 36.1993C59.0867 36.6482 58.3253 36.8727 57.3877 36.8727C56.5069 36.8727 55.7881 36.6738 55.2312 36.276V36.7363H53.7822Z" fill="white"/>
<path d="M0.738647 9.90059L32.2642 0L67.1768 13.2876H60.1422L32.2642 3.1265L9.59707 9.90059H0.738647Z" fill="white"/>
<path d="M44.7703 0H54.6709V9.11896L51.1535 7.81625V3.1265H48.5481V7.03463H44.7703V0Z" fill="white"/>
<path d="M31.2221 6.51355C31.2221 6.51355 28.8498 8.59788 28.2259 10.2914C27.6019 11.9849 28.6167 14.0693 28.6167 14.0693H24.9691C24.9691 14.0693 24.9614 13.1574 26.1415 10.2914C27.3216 7.42545 31.2221 6.51355 31.2221 6.51355Z" fill="white"/>
<circle cx="32.9157" cy="12.6363" r="1.69352" fill="white"/>
</svg>
