<svg width="22" height="22" viewBox="0 0 22 22" fill="none" xmlns="http://www.w3.org/2000/svg">
<path d="M15.8125 10.6992H17.1875C17.5435 10.6992 17.832 10.9878 17.832 11.3438C17.832 11.6997 17.5435 11.9883 17.1875 11.9883H15.8125C15.4565 11.9883 15.168 11.6997 15.168 11.3438C15.168 10.9878 15.4565 10.6992 15.8125 10.6992Z" fill="white"/>
<path d="M15.8125 13.4492H17.1875C17.5435 13.4492 17.832 13.7378 17.832 14.0938C17.832 14.4497 17.5435 14.7383 17.1875 14.7383H15.8125C15.4565 14.7383 15.168 14.4497 15.168 14.0938C15.168 13.7378 15.4565 13.4492 15.8125 13.4492Z" fill="white"/>
<path d="M15.8125 16.1992H17.1875C17.5435 16.1992 17.832 16.4878 17.832 16.8438C17.832 17.1997 17.5435 17.4883 17.1875 17.4883H15.8125C15.4565 17.4883 15.168 17.1997 15.168 16.8438C15.168 16.4878 15.4565 16.1992 15.8125 16.1992Z" fill="white"/>
<path d="M10.3125 10.6992H11.6875C12.0435 10.6992 12.332 10.9878 12.332 11.3438C12.332 11.6997 12.0435 11.9883 11.6875 11.9883H10.3125C9.95655 11.9883 9.66797 11.6997 9.66797 11.3438C9.66797 10.9878 9.95655 10.6992 10.3125 10.6992Z" fill="white"/>
<path d="M10.3125 13.4492H11.6875C12.0435 13.4492 12.332 13.7378 12.332 14.0938C12.332 14.4497 12.0435 14.7383 11.6875 14.7383H10.3125C9.95655 14.7383 9.66797 14.4497 9.66797 14.0938C9.66797 13.7378 9.95655 13.4492 10.3125 13.4492Z" fill="white"/>
<path d="M10.3125 16.1992H11.6875C12.0435 16.1992 12.332 16.4878 12.332 16.8438C12.332 17.1997 12.0435 17.4883 11.6875 17.4883H10.3125C9.95655 17.4883 9.66797 17.1997 9.66797 16.8438C9.66797 16.4878 9.95655 16.1992 10.3125 16.1992Z" fill="white"/>
<path d="M4.8125 10.6992H6.1875C6.54345 10.6992 6.83203 10.9878 6.83203 11.3438C6.83203 11.6997 6.54345 11.9883 6.1875 11.9883H4.8125C4.45655 11.9883 4.16797 11.6997 4.16797 11.3438C4.16797 10.9878 4.45655 10.6992 4.8125 10.6992Z" fill="white"/>
<path d="M4.8125 13.4492H6.1875C6.54345 13.4492 6.83203 13.7378 6.83203 14.0938C6.83203 14.4497 6.54345 14.7383 6.1875 14.7383H4.8125C4.45655 14.7383 4.16797 14.4497 4.16797 14.0938C4.16797 13.7378 4.45655 13.4492 4.8125 13.4492Z" fill="white"/>
<path d="M4.8125 16.1992H6.1875C6.54345 16.1992 6.83203 16.4878 6.83203 16.8438C6.83203 17.1997 6.54345 17.4883 6.1875 17.4883H4.8125C4.45655 17.4883 4.16797 17.1997 4.16797 16.8438C4.16797 16.4878 4.45655 16.1992 4.8125 16.1992Z" fill="white"/>
<path d="M1.93359 2.79297H3.48047V1.71875C3.48047 1.3628 3.76905 1.07422 4.125 1.07422C4.48095 1.07422 4.76953 1.3628 4.76953 1.71875V2.79297H10.3555V1.71875C10.3555 1.3628 10.644 1.07422 11 1.07422C11.356 1.07422 11.6445 1.3628 11.6445 1.71875V2.79297H17.2305V1.71875C17.2305 1.3628 17.519 1.07422 17.875 1.07422C18.231 1.07422 18.5195 1.3628 18.5195 1.71875V2.79297H20.0664C21.1326 2.79297 22 3.66038 22 4.72656V18.9922C22 20.0584 21.1326 20.9258 20.0664 20.9258H1.93359C0.867411 20.9258 0 20.0584 0 18.9922C0 18.5762 0 5.08857 0 4.72656C0 3.66038 0.867411 2.79297 1.93359 2.79297ZM20.7109 4.72656C20.7109 4.37117 20.4218 4.08203 20.0664 4.08203H18.5195V5.15625C18.5195 5.5122 18.231 5.80078 17.875 5.80078C17.519 5.80078 17.2305 5.5122 17.2305 5.15625V4.08203H11.6445V5.15625C11.6445 5.5122 11.356 5.80078 11 5.80078C10.644 5.80078 10.3555 5.5122 10.3555 5.15625V4.08203H4.76953V5.15625C4.76953 5.5122 4.48095 5.80078 4.125 5.80078C3.76905 5.80078 3.48047 5.5122 3.48047 5.15625V4.08203H1.93359C1.5782 4.08203 1.28906 4.37117 1.28906 4.72656V7.26172H20.7109V4.72656ZM1.93359 19.6367H20.0664C20.4218 19.6367 20.7109 19.3476 20.7109 18.9922V8.55078H1.28906V18.9922C1.28906 19.3476 1.5782 19.6367 1.93359 19.6367Z" fill="white"/>
</svg>
