<svg width="192" height="200" viewBox="0 0 192 200" fill="none" xmlns="http://www.w3.org/2000/svg">
<circle cx="91.5" cy="91.5" r="91.5" fill="#F6F8FC"/>
<g clip-path="url(#clip0)">
<path d="M11.3836 182.211L177.024 183.657L177.885 85.0494L12.2446 83.6031L11.3836 182.211Z" fill="#407BFF"/>
<path opacity="0.1" d="M11.3836 182.211L177.024 183.657L177.885 85.0494L12.2446 83.6031L11.3836 182.211Z" fill="black"/>
<path opacity="0.1" d="M94.5994 138.107L12.2476 83.5935L177.886 85.0479L94.5994 138.107Z" fill="#263238"/>
<path d="M85.1288 37.1695L12.2477 83.5927L177.887 85.0401L105.829 37.3464C99.5731 33.2023 91.462 33.1323 85.1288 37.1695Z" fill="#407BFF"/>
<path opacity="0.2" d="M171.734 84.9917L103.269 39.671C98.5472 36.5474 92.4232 36.4941 87.6503 39.5374L18.3998 83.6497L171.734 84.9917Z" fill="#263238"/>
<path d="M141.574 80.6185L163.145 88.8702L163.097 94.4693L94.5995 138.107L26.8716 93.2753L26.9659 82.0913L141.574 80.6185Z" fill="white"/>
<path d="M141.574 80.6185L144.548 92.6786L163.145 88.8702" fill="#E0E0E0"/>
<path d="M141.574 80.6185L142.725 90.4274L163.145 88.8702" fill="#F0F0F0"/>
<path d="M108.804 129.043L177.026 183.657L11.3859 182.209L80.5543 128.798C88.9019 122.351 100.568 122.454 108.804 129.043Z" fill="#407BFF"/>
</g>
<defs>
<clipPath id="clip0">
<rect width="174.323" height="156.077" fill="white" transform="translate(18.2927 26) rotate(5.99193)"/>
</clipPath>
</defs>
</svg>
