<svg width="182" height="101" viewBox="0 0 182 101" fill="none" xmlns="http://www.w3.org/2000/svg">
<path d="M95.5 100.016C122.838 100.016 145 77.8687 145 50.5486C145 23.2284 122.838 1.08105 95.5 1.08105C68.1619 1.08105 46 23.2284 46 50.5486C46 77.8687 68.1619 100.016 95.5 100.016Z" fill="#1F87C9"/>
<path d="M91.5309 76.8608L68.1267 58.6278L74.7814 50.0875L89.1534 61.2838L112.873 27.0561L121.774 33.2219L91.5309 76.8608Z" fill="white"/>
<path d="M152.58 7.10085C150.18 5.78403 148.216 3.81958 146.899 1.4202C146.419 0.544248 145.499 0 144.5 0C144.5 0 144.5 0 144.5 0C143.501 0 142.582 0.544092 142.101 1.41989C140.784 3.81958 138.82 5.78403 136.42 7.10101C135.544 7.58185 135 8.50107 135 9.50039C135 10.4994 135.544 11.4188 136.42 11.8991C138.82 13.216 140.784 15.1804 142.101 17.5803C142.582 18.4562 143.501 19.0002 144.5 19C145.499 19 146.419 18.4556 146.899 17.5801C148.216 15.1803 150.18 13.2158 152.58 11.899C153.456 11.4185 154 10.4994 154 9.50023C154 8.50122 153.456 7.5817 152.58 7.10085Z" fill="#D7E3FF"/>
<path d="M181.794 34.3981C181.794 36.1207 180.853 37.7085 179.343 38.5362C175.2 40.8086 171.811 44.1998 169.536 48.3433C168.708 49.8529 167.121 50.7936 165.398 50.7936C165.395 50.7936 165.395 50.7936 165.395 50.7936C163.67 50.7936 162.085 49.8526 161.255 48.3406C159.673 45.4561 157.546 42.933 155.001 40.9029C153.895 40.0159 152.71 39.2235 151.453 38.5362C149.941 37.7085 149 36.121 149 34.3981C149 32.6729 149.941 31.0851 151.45 30.2574C152.707 29.5674 153.892 28.7747 155.001 27.8906C157.545 25.8581 159.672 23.3375 161.257 20.4503C162.085 18.9407 163.67 18 165.395 18C165.395 18 165.395 18 165.398 18C167.121 18 168.708 18.9409 169.536 20.4503C171.811 24.5938 175.2 27.985 179.343 30.2574C180.853 31.0851 181.794 32.6729 181.794 34.3981Z" fill="#D7E3FF"/>
<path d="M24.0568 28.717C20.773 26.915 18.0849 24.2268 16.2829 20.9434C15.6253 19.7448 14.3677 19 13.0002 19C13 19 13 19 13 19C11.6329 19 10.3749 19.7445 9.71688 20.943C7.91493 24.2268 5.22676 26.915 1.94278 28.7172C0.744116 29.3752 -0.000213657 30.633 4.60047e-08 32.0005C4.60047e-08 33.3676 0.74497 34.6257 1.94299 35.283C5.22676 37.085 7.91493 39.7732 9.71709 43.0572C10.3751 44.2559 11.6329 45.0002 13.0004 45C14.3675 45 15.6256 44.255 16.2829 43.057C18.0851 39.773 20.7732 37.0848 24.057 35.2828C25.2555 34.625 26 33.3676 26 32.0003C26 30.6332 25.2555 29.375 24.0568 28.717Z" fill="#D7E3FF"/>
<path d="M38.0284 49.8585C36.3865 48.9575 35.0424 47.6134 34.1415 45.9717C33.8127 45.3724 33.1839 45 32.5001 45C32.5 45 32.5 45 32.5 45C31.8165 45 31.1874 45.3723 30.8584 45.9715C29.9575 47.6134 28.6134 48.9575 26.9714 49.8586C26.3721 50.1876 25.9999 50.8165 26 51.5003C26 52.1838 26.3725 52.8128 26.9715 53.1415C28.6134 54.0425 29.9575 55.3866 30.8585 57.0286C31.1875 57.6279 31.8165 58.0001 32.5002 58C33.1837 58 33.8128 57.6275 34.1415 57.0285C35.0425 55.3865 36.3866 54.0424 38.0285 53.1414C38.6277 52.8125 39 52.1838 39 51.5002C39 50.8166 38.6277 50.1875 38.0284 49.8585Z" fill="#D7E3FF"/>
<path d="M50.0568 10.717C46.773 8.91499 44.0849 6.2268 42.2829 2.94343C41.6253 1.74476 40.3677 1 39.0002 1C39 1 39 1 39 1C37.6329 1 36.3749 1.74455 35.7169 2.94301C33.9149 6.2268 31.2268 8.91499 27.9428 10.7172C26.7441 11.3752 25.9998 12.633 26 14.0005C26 15.3676 26.745 16.6257 27.943 17.283C31.2268 19.085 33.9149 21.7732 35.7171 25.0572C36.3751 26.2559 37.6329 27.0002 39.0004 27C40.3675 27 41.6256 26.255 42.2829 25.057C44.0851 21.773 46.7732 19.0848 50.057 17.2828C51.2555 16.625 52 15.3676 52 14.0003C52 12.6332 51.2555 11.375 50.0568 10.717Z" fill="#D7E3FF"/>
</svg>
