<svg width="234" height="241" viewBox="0 0 234 241" fill="none" xmlns="http://www.w3.org/2000/svg">
<path d="M24.6724 105.288C24.6724 105.288 65.6587 103.647 74.516 36.274C82.3814 -23.5596 151.495 3.67446 171.473 27.5255C197.353 58.4226 183.558 111.572 217.037 118.286C250.515 125.001 228.653 199.652 177.834 192.507C114.617 183.618 129.912 220.559 110.934 236.194C97.3145 247.416 41.4686 236.614 39.6073 195.878C38.0411 161.6 23.5818 161.709 13.3329 157.822C-1.4483 152.216 -10.7621 111.618 24.6724 105.288Z" fill="#F3F6FD"/>
<path d="M164.003 180.11L123.735 140.32L115.762 148.389L156.03 188.179L164.003 180.11Z" fill="#699CFF"/>
<path d="M179.386 190.802L148.057 159.845C147.883 159.672 147.601 159.674 147.429 159.849L135.572 171.849C135.399 172.023 135.401 172.304 135.575 172.477L166.904 203.433C167.078 203.606 167.359 203.604 167.532 203.43L179.389 191.43C179.562 191.255 179.56 190.974 179.386 190.802Z" fill="#107FC4"/>
<path d="M88.0457 160.331C115.749 160.331 138.207 137.874 138.207 110.17C138.207 82.4674 115.749 60.0096 88.0457 60.0096C60.3426 60.0096 37.8848 82.4674 37.8848 110.17C37.8848 137.874 60.3426 160.331 88.0457 160.331Z" fill="#107FC4"/>
<path d="M88.0455 152.147C111.228 152.147 130.022 133.354 130.022 110.171C130.022 86.9879 111.228 68.1945 88.0455 68.1945C64.8627 68.1945 46.0693 86.9879 46.0693 110.171C46.0693 133.354 64.8627 152.147 88.0455 152.147Z" fill="#D4E5FF"/>
<path d="M172.849 64.8247C161.083 61.0109 148.367 67.4612 144.538 79.2756C140.724 91.0416 147.174 103.757 158.989 107.586C170.803 111.415 183.486 104.902 187.3 93.1353C191.115 81.3687 184.615 68.6384 172.849 64.8247ZM169.298 75.7782C170.615 76.2051 171.776 77.0135 172.633 78.1009C173.49 79.1883 174.004 80.5057 174.111 81.886C174.219 83.2663 173.913 84.6474 173.234 85.854C172.556 87.0605 171.534 88.0383 170.298 88.6633C169.063 89.2882 167.67 89.5322 166.295 89.3643C164.921 89.1963 163.628 88.6241 162.579 87.72C161.531 86.8159 160.774 85.6208 160.406 84.2863C160.038 82.9517 160.074 81.5378 160.51 80.2239C161.689 76.5888 165.663 74.5999 169.298 75.7782ZM160.415 103.186C156.506 101.925 153.157 99.3448 150.941 95.8865C155.087 93.5305 159.423 92.8742 163.345 94.1456C167.268 95.4169 170.457 98.459 172.37 102.832C168.547 104.333 164.32 104.458 160.415 103.186Z" fill="#107FC4"/>
<path d="M74.9164 172.043C72.8727 173.086 71.1842 174.712 70.0645 176.715C68.9448 178.718 68.4441 181.008 68.6258 183.295C68.8075 185.582 69.6634 187.765 71.0852 189.565C72.507 191.366 74.431 192.705 76.6138 193.413C78.7965 194.12 81.1401 194.164 83.348 193.54C85.5559 192.916 87.5291 191.65 89.018 189.905C90.507 188.159 91.4447 186.01 91.7128 183.732C91.9808 181.453 91.567 179.146 90.5238 177.102C89.1225 174.364 86.6922 172.293 83.7662 171.345C80.8402 170.397 77.6575 170.648 74.9164 172.043ZM77.6186 177.337C78.2551 177.012 78.9738 176.883 79.6835 176.968C80.3932 177.052 81.0619 177.345 81.6048 177.809C82.1478 178.274 82.5405 178.89 82.7331 179.578C82.9257 180.266 82.9095 180.996 82.6867 181.675C82.4638 182.354 82.0443 182.952 81.4814 183.392C80.9184 183.832 80.2374 184.095 79.5247 184.148C78.812 184.201 78.0997 184.04 77.4781 183.688C76.8566 183.335 76.3538 182.805 76.0336 182.167C75.6092 181.315 75.5376 180.33 75.8343 179.426C76.131 178.522 76.7721 177.771 77.6186 177.337V177.337ZM84.3796 190.583C82.4928 191.55 80.3286 191.83 78.2576 191.377C78.911 189.003 80.254 187.181 82.15 186.214C84.046 185.246 86.3201 185.193 88.6142 186.09C87.7664 188.034 86.2695 189.622 84.3796 190.582V190.583Z" fill="#107FC4"/>
</svg>
