<?xml version="1.0" encoding="UTF-8"?>
<svg xmlns="http://www.w3.org/2000/svg" xmlns:xlink="http://www.w3.org/1999/xlink" width="20pt" height="20pt" viewBox="0 0 20 20" version="1.1">
<g id="surface1">
<path style=" stroke:none;fill-rule:nonzero;fill:rgb(256%,256%,256%);fill-opacity:1;" d="M 15.054688 1.796875 C 17.746094 3.5 19.53125 6.503906 19.53125 9.921875 C 19.53125 15.222656 15.238281 19.519531 9.9375 19.53125 C 4.648438 19.542969 0.316406 15.230469 0.308594 9.9375 C 0.308594 6.511719 2.09375 3.5 4.785156 1.796875 C 5.011719 1.652344 5.308594 1.722656 5.441406 1.957031 L 5.59375 2.230469 C 5.710938 2.445312 5.640625 2.714844 5.433594 2.847656 C 3.097656 4.339844 1.550781 6.960938 1.550781 9.921875 C 1.550781 14.566406 5.320312 18.292969 9.921875 18.292969 C 14.566406 18.292969 18.292969 14.519531 18.292969 9.921875 C 18.292969 6.9375 16.738281 4.332031 14.402344 2.851562 C 14.195312 2.71875 14.125 2.445312 14.246094 2.230469 L 14.394531 1.960938 C 14.527344 1.722656 14.828125 1.65625 15.054688 1.796875 Z M 10.539062 10.695312 L 10.539062 0.464844 C 10.539062 0.210938 10.332031 0 10.074219 0 L 9.765625 0 C 9.511719 0 9.300781 0.210938 9.300781 0.464844 L 9.300781 10.695312 C 9.300781 10.953125 9.511719 11.160156 9.765625 11.160156 L 10.074219 11.160156 C 10.332031 11.160156 10.539062 10.953125 10.539062 10.695312 Z M 10.539062 10.695312 "/>
</g>
</svg>
